<svg id="Layer_1" data-name="Layer 1" xmlns="http://www.w3.org/2000/svg" viewBox="0 0 108.05 108.05"><defs><style>.cls-1{fill:#fff;}</style></defs><title>dell</title><g id="layer1"><g id="g3460"><path id="path3462" class="cls-1" d="M54,5.84A48.19,48.19,0,1,0,88.1,20,48,48,0,0,0,54,5.84M54,0A54,54,0,1,1,0,54,54,54,0,0,1,54,0"/></g><g id="g3464"><path id="path3466" class="cls-1" d="M28.48,53.59c0-3.15-2.09-4.94-5-4.94H21.62v9.88h1.76c2.75,0,5.1-1.49,5.1-4.94m32.2,3.55L47.34,67.65l-12.19-9.6a11.78,11.78,0,0,1-10.9,7.16H13.82V42H24.25a11.69,11.69,0,0,1,10.9,7.18l12.19-9.59,4.52,3.55L40.68,51.91l2.15,1.68L54,44.81l4.52,3.54L47.35,57.15l2.14,1.68L60.68,50V42h8.11V58.43h8.09v6.81H60.68Zm26.46,1.29h8.08v6.81H79V42h8.11Z"/></g></g></svg>