<svg id="Layer_1" data-name="Layer 1" xmlns="http://www.w3.org/2000/svg" viewBox="0 0 86.71 67.48"><defs><style>.cls-1{fill:#fff;}</style></defs><title>mastercard</title><path class="cls-1" d="M55.78,26.86A28.88,28.88,0,0,1,45.16,49.32,26.85,26.85,0,1,0,59.89,0,26.65,26.65,0,0,0,45.16,4.41,28.87,28.87,0,0,1,55.78,26.86Z"/><path class="cls-1" d="M26.81,53.73a26.64,26.64,0,0,0,14.73-4.41,29.06,29.06,0,0,1,0-44.9A26.85,26.85,0,1,0,26.81,53.73Z"/><path class="cls-1" d="M33.08,26.86A26.84,26.84,0,0,0,43.35,48a26.91,26.91,0,0,0,0-42.3A26.83,26.83,0,0,0,33.08,26.86Z"/><polygon class="cls-1" points="84.9 41.12 85.07 41.12 85.07 40.32 85.39 40.32 85.39 40.16 84.58 40.16 84.58 40.32 84.9 40.32 84.9 41.12"/><polygon class="cls-1" points="86.12 40.82 85.83 40.16 85.58 40.16 85.58 41.12 85.76 41.12 85.76 40.4 86.03 41.02 86.21 41.02 86.48 40.39 86.48 41.12 86.66 41.12 86.66 40.16 86.41 40.16 86.12 40.82"/><path class="cls-1" d="M37.46,65.73c-.78,0-1-.48-1-1.2V61.31H39V59.89H36.43V57.72H34.85v2.17H33.41v1.42h1.45v3.26c0,1.66.64,2.65,2.48,2.65a3.65,3.65,0,0,0,1.94-.55l-.45-1.33A2.88,2.88,0,0,1,37.46,65.73Z"/><path class="cls-1" d="M29.86,62.75l-.73-.11c-.67-.09-1.21-.22-1.21-.7s.51-.84,1.36-.84a4.61,4.61,0,0,1,2.23.61l.67-1.26a5.34,5.34,0,0,0-2.91-.75c-1.81,0-3,.87-3,2.29,0,1.17.87,1.88,2.47,2.11l.73.1c.85.12,1.25.34,1.25.75s-.57.87-1.63.87a3.8,3.8,0,0,1-2.38-.75L26,66.29a5.15,5.15,0,0,0,3.09.93c2.06,0,3.26-1,3.26-2.33S31.42,63,29.86,62.75Z"/><path class="cls-1" d="M12.93,59.71A2.77,2.77,0,0,0,10.41,61a2.62,2.62,0,0,0-2.36-1.27A2.36,2.36,0,0,0,6,60.77v-.88H4.41V67H6v-4a1.67,1.67,0,0,1,1.75-1.9c1,0,1.55.67,1.55,1.88v4h1.57v-4a1.69,1.69,0,0,1,1.75-1.9c1.06,0,1.57.67,1.57,1.88v4h1.57V62.55A2.66,2.66,0,0,0,12.93,59.71Z"/><path class="cls-1" d="M81.22,60.76a2.71,2.71,0,0,0-2.26-1,3.76,3.76,0,0,0,0,7.5,2.71,2.71,0,0,0,2.26-1V67h1.56V57H81.22Zm-2.06,5a2.29,2.29,0,1,1,2.15-2.29A2.14,2.14,0,0,1,79.16,65.75Z"/><path class="cls-1" d="M22.94,60.76a2.71,2.71,0,0,0-2.26-1,3.76,3.76,0,0,0,0,7.5,2.71,2.71,0,0,0,2.26-1V67H24.5V59.89H22.94Zm-2.06,5A2.29,2.29,0,1,1,23,63.46,2.14,2.14,0,0,1,20.88,65.75Z"/><path class="cls-1" d="M85.88,66.21l-.23-.15a.71.71,0,0,0-.28-.06.72.72,0,0,0-.29.06l-.23.15-.15.23a.7.7,0,0,0,0,.55l.15.23.23.15a.72.72,0,0,0,.29.06.71.71,0,0,0,.28-.06l.23-.15L86,67a.7.7,0,0,0,0-.55Zm0,.72-.12.18-.17.12-.21,0-.22,0L85,67.1l-.12-.18,0-.22,0-.22.12-.18.18-.12.22,0,.21,0,.17.12.12.18,0,.22Z"/><path class="cls-1" d="M71.94,60.76v-.87H70.4V67H72V63c0-1.18.51-1.84,1.52-1.84a2.52,2.52,0,0,1,1,.18l.48-1.46a3.31,3.31,0,0,0-1.11-.2A2.11,2.11,0,0,0,71.94,60.76Z"/><path class="cls-1" d="M43.81,59.71a3.76,3.76,0,0,0,.1,7.5,4.34,4.34,0,0,0,2.93-1l-.76-1.15a3.42,3.42,0,0,1-2.08.75,2,2,0,0,1-2.14-1.75h5.31c0-.19,0-.39,0-.6C47.19,61.23,45.81,59.71,43.81,59.71Zm-1.93,3.12a1.84,1.84,0,0,1,1.9-1.73,1.77,1.77,0,0,1,1.81,1.73Z"/><path class="cls-1" d="M66.8,60.76a2.71,2.71,0,0,0-2.26-1,3.76,3.76,0,0,0,0,7.5,2.71,2.71,0,0,0,2.26-1V67h1.55V59.89H66.8Zm-2.06,5a2.29,2.29,0,1,1,2.15-2.29A2.14,2.14,0,0,1,64.74,65.75Z"/><path class="cls-1" d="M85.62,66.72l.05-.14-.07-.15-.2-.06h-.3V67h.14v-.25h.07l.2.25h.17l-.22-.25Zm-.37,0V66.5h.16l.09,0,0,.07,0,.07-.09,0Z"/><path class="cls-1" d="M52.22,59.71a2.1,2.1,0,0,0-1.88,1v-.87H48.8V67h1.55V63c0-1.18.51-1.84,1.52-1.84a2.52,2.52,0,0,1,1,.18l.48-1.46a3.31,3.31,0,0,0-1.11-.2Z"/><path class="cls-1" d="M57.56,61.17a3.14,3.14,0,0,1,1.87.64l.75-1.26a3.74,3.74,0,0,0-2.57-.85,3.75,3.75,0,1,0,0,7.5,3.74,3.74,0,0,0,2.57-.85l-.75-1.26a3.14,3.14,0,0,1-1.87.64,2.29,2.29,0,0,1,0-4.57Z"/></svg>