<svg id="Layer_1" data-name="Layer 1" xmlns="http://www.w3.org/2000/svg" viewBox="0 0 137.04 22.79"><defs><style>.cls-1{fill:#fff;}</style></defs><title>autodesk</title><path class="cls-1" d="M1.66,16.25H5.82l4-9.44L7.66,1.7a1.73,1.73,0,0,0-.82-1,.9.9,0,0,0-.28,0,1,1,0,0,0-.83.63L.24,14.35c-.31.85-.11,1.9,1.42,1.9Zm3.87.7H1.12A1.44,1.44,0,0,1,0,16.47C.73,17.84,3,22,3,22a1.34,1.34,0,0,0,1.27.74,8.26,8.26,0,0,0,3.19-1.27l7.35-4.57H5.53Z"/><path class="cls-1" d="M14.38.62a1,1,0,0,0-1-.62H6.78A1.66,1.66,0,0,1,8.13,1l2.06,4.88,7.12,16.88h6.42L14.38.62ZM137,15.71a1.19,1.19,0,1,0-1.19,1.19h0A1.19,1.19,0,0,0,137,15.71Zm-.18,0a1,1,0,1,1-1-1,1,1,0,0,1,1,1S136.87,15.69,136.87,15.71Z"/><path class="cls-1" d="M136.37,16.32l-.29-.41a.66.66,0,0,0-.14-.16.32.32,0,0,0,.33-.31h0a.35.35,0,0,0-.34-.35h-.44v1.24h.18v-.55a.2.2,0,0,1,.2.12l.3.43h.22Zm-.3-.89c0,.18-.15.19-.29.19h-.13v-.39h.18a.19.19,0,0,1,.23.2Zm-94.2,1.47H39.42l-1.34-3.18H31.85l-1.36,3.18H28.12l5.8-13.28h2.15ZM35,6.39l-2.26,5.28h4.54Zm28.3,10.52H60.92v-11H56.73V3.72H67.62l-.9,2.15H63.25Zm44.37-11h-7.06V9.22h4.52v2.07h-4.52V14.8h7.06v2.11h-9.4V3.72h9.4V5.86Zm16.56,11H122V3.72h2.21Zm-9.4-11.29c-1.35,0-2.49.41-2.5,1.3,0,1,.65,1.41,3.13,2.21,2.74.9,4.2,1.82,4.18,4,0,2.51-2,3.95-4.8,3.95a7.72,7.72,0,0,1-5.18-1.86l.85-2.07A7,7,0,0,0,114.87,15c1.43,0,2.44-.69,2.44-1.72,0-.86-.5-1.43-2.9-2.19C111.65,10.18,110,9.24,110,7s2.11-3.51,4.75-3.49a8.2,8.2,0,0,1,4.35,1.11l-.83,1.88A7.15,7.15,0,0,0,114.79,5.62ZM127,10.1l5.9-6.39h-2.83l-5.92,6.39,6.51,6.81h2.87ZM74.77,3.49a6.82,6.82,0,1,0,6.82,6.82h0a6.82,6.82,0,0,0-6.82-6.82h0Zm0,11.52a4.52,4.52,0,0,1-4.49-4.55s0-.1,0-.14a4.49,4.49,0,0,1,9-.41q0,.2,0,.41A4.52,4.52,0,0,1,74.91,15h-.14ZM89,3.72H84V16.91h5a6.6,6.6,0,1,0,.45-13.19H89Zm0,11.08H86.37V5.87H89A4.29,4.29,0,0,1,93.52,10q0,.16,0,.33a4.36,4.36,0,0,1-4.21,4.5H89ZM54.18,11.06c0,3.93-2.31,6.05-5.65,6.05S42.88,15,42.88,11.06V3.72h2.34v7.63c0,2.3,1.35,3.66,3.32,3.66s3.32-1.36,3.32-3.66V3.72h2.34Z"/></svg>