<svg id="Layer_1" data-name="Layer 1" xmlns="http://www.w3.org/2000/svg" viewBox="0 0 135.88 39.6"><defs><style>.cls-1{fill:#fff;}</style></defs><title>intuit</title><path class="cls-1" d="M91.13,11.74h-4c-.89,0-1.4.34-1.4,1.29v17.9a10.79,10.79,0,0,1-6.49,2.68c-3.36,0-4.14-2.13-4.14-5.2V13c0-1-.5-1.29-1.4-1.29H69.81c-.89,0-1.45.34-1.45,1.29V29.58c0,6,2.57,10,8.84,10a14.09,14.09,0,0,0,8.9-3.19l.06,1.4a1.21,1.21,0,0,0,1.34,1.12h3.58c1.12,0,1.46-.39,1.46-1.57V13C92.53,12,92,11.74,91.13,11.74Z"/><path class="cls-1" d="M5.74,11.74H1c-.67,0-1,.45-1,1.12V37.53c0,1,.45,1.4,1.46,1.4H5.4c1,0,1.4-.39,1.4-1.4V12.86A1,1,0,0,0,5.74,11.74Z"/><path class="cls-1" d="M105.27,11.74h-4.73c-.67,0-1,.45-1,1.12V37.53c0,1,.45,1.4,1.46,1.4h3.95c1,0,1.4-.39,1.4-1.4V12.86A1,1,0,0,0,105.27,11.74Z"/><path class="cls-1" d="M29.31,11.06a14.62,14.62,0,0,0-9.07,3.24l-.06-1.49c-.05-.84-.56-1.06-1.34-1.06H15.2a1.22,1.22,0,0,0-1.4,1.4V37.59a1.21,1.21,0,0,0,1.34,1.34h4.09c1,0,1.34-.45,1.34-1.4V19.68A11.09,11.09,0,0,1,27.18,17c3.42,0,4.25,2.18,4.25,5.26V37.47c0,1,.34,1.45,1.34,1.45h4c1,0,1.34-.5,1.34-1.45V21.08C38.15,15,35.57,11.06,29.31,11.06Z"/><circle class="cls-1" cx="52.64" cy="4.1" r="4.1"/><path class="cls-1" d="M62.59,11.74H42.7c-.67,0-1.06.22-1.06,1v3.94a1,1,0,0,0,1.12,1.06h6.49V37.53c0,1,.45,1.4,1.45,1.4h3.9c1,0,1.45-.39,1.45-1.4V17.7h6.49a1,1,0,0,0,1.12-1.06V12.69C63.65,12,63.26,11.74,62.59,11.74Z"/><circle class="cls-1" cx="122.09" cy="4.1" r="4.1"/><path class="cls-1" d="M133.1,16.63V12.69c0-.73-.39-1-1.06-1H112.14c-.67,0-1.06.22-1.06,1v3.94a1,1,0,0,0,1.12,1.06h6.49V37.53c0,1,.45,1.4,1.45,1.4H124c1,0,1.45-.39,1.45-1.4V17.7H132A1,1,0,0,0,133.1,16.63Z"/><path class="cls-1" d="M133.88,35.14a2,2,0,1,0,2,2A2,2,0,0,0,133.88,35.14Zm0,3.69a1.7,1.7,0,1,1,1.64-1.71A1.65,1.65,0,0,1,133.88,38.83Z"/><path class="cls-1" d="M134.82,36.63c0-.45-.26-.67-.82-.67h-.9v2.33h.36v-1h.38l.63,1h.39l-.67-1A.6.6,0,0,0,134.82,36.63Zm-1,.37h-.38v-.74h.48c.25,0,.51,0,.51.36S134.16,37,133.84,37Z"/></svg>