<svg id="Layer_1" data-name="Layer 1" xmlns="http://www.w3.org/2000/svg" viewBox="0 0 154.15 44.89"><defs><style>.cls-1{fill:#fff;}</style></defs><title>cbs</title><path class="cls-1" d="M1.61,22.94C1.61,11.48,10.39,3.76,22,3.76c9.72,0,14.61,5.67,16.83,10.78L29.16,19A7.85,7.85,0,0,0,22,13.65c-5.39,0-9,4.11-9,9.28s3.61,9.28,9,9.28a7.85,7.85,0,0,0,7.16-5.39l9.67,4.45C36.67,36.22,31.72,42.11,22,42.11c-11.61,0-20.39-7.78-20.39-19.18"/><path class="cls-1" d="M41.23,41.45V4.37h22.5c7.67,0,11,5.11,11,9.45,0,4.61-2.72,7.73-6.33,8.51,4,.61,7.05,4.28,7.05,9.06,0,5.17-3.5,10.06-10.94,10.06M63.33,15.82a2.14,2.14,0,0,0-2.22-2.11H52.45V18h8.67A2.19,2.19,0,0,0,63.33,15.82Zm.72,14a2.4,2.4,0,0,0-2.61-2.39h-9v4.72h9A2.33,2.33,0,0,0,64.06,29.77Z"/><path class="cls-1" d="M76,36.22l5.83-8.34a17.26,17.26,0,0,0,11.94,4.78c2.11,0,4.11-.56,4.11-2,0-3.56-20.66.06-20.66-14.56,0-6.28,5.23-12.29,15.39-12.29A24.44,24.44,0,0,1,108.34,9l-6,7.95a18.71,18.71,0,0,0-10.89-3.67c-2.22,0-2.83.72-2.83,1.67,0,3.5,20.61.5,20.61,14.29,0,8.17-6.05,12.9-16,12.9C85.34,42.11,80,39.78,76,36.22"/><path class="cls-1" d="M152.54,22.39a21,21,0,1,1-41.92,0,21,21,0,1,1,41.92,0m-40.44,0a21.61,21.61,0,0,0,39,0,21.68,21.68,0,0,0-39,0Zm30.74,0a11.26,11.26,0,1,1-11.23-11.24A11.21,11.21,0,0,1,142.84,22.39Z"/></svg>