<svg id="Layer_1" data-name="Layer 1" xmlns="http://www.w3.org/2000/svg" viewBox="0 0 108.1 91.56"><defs><style>.cls-1{fill:#fff;}</style></defs><title>nasa</title><path class="cls-1" d="M73.22,54.82H72c.33,1,.62,1.9.87,2.82,1.36,5.13,1.14,9.14-.63,11.29-2,2.51-6.21,2.57-12,.18l-.07.18h0l-.07.18.18.07-.06.15a21.58,21.58,0,0,0,8,2A6.18,6.18,0,0,0,72.87,70c1.79-1.81,2.36-5,1.7-9.49A37.62,37.62,0,0,0,73.22,54.82Z"/><path class="cls-1" d="M39.94,45.25l-.48,1.54,1.78-.44L40.32,44Z"/><path class="cls-1" d="M17.26,50.26c0,.25,0,.5,0,.75a1.89,1.89,0,0,0,.67,1.4l2.73-.81L19.38,49.4Z"/><path class="cls-1" d="M108.1,5.45h0l-2.5,3.26c-4.18,4.71-10.75,9.52-16.65,13.18C80.76,8.86,66.25,0,50.11,0A45.76,45.76,0,0,0,5.44,56c-2,1-3.86,2-5.44,3l1.13.41A49.08,49.08,0,0,1,5.67,57,45.7,45.7,0,0,0,17.77,78.09l.78.77c-2,1.73-4,3.56-6,5.46l-.1,1.54c1.91-2,4.22-4.08,6.86-6.31A45.83,45.83,0,0,0,95.93,45.78a44.42,44.42,0,0,0-4-18.31c7.55-6.78,13.44-14,16.13-22v0ZM7.78,56q2.1-.89,4.35-1.69a.76.76,0,0,1,.09-1.28,2.67,2.67,0,0,0,1.24-1.13c-2.08,1-4,1.95-5.94,3A43.45,43.45,0,0,1,50.11,2.27,44,44,0,0,1,87,23c-1.93,1.14-3.74,2.14-5.32,2.93a214.45,214.45,0,0,1-20.1,8.84c-5.83-7.22-13-13.72-20.37-17-6.64-2.93-10-1.44-11.57.34-3,3.33-2.75,10.48.46,18.45a.73.73,0,0,1,.35.84,51.23,51.23,0,0,0,2.37,4.82c.38.68.75,1.32,1.12,2l-3.23,1.06-1.56.52c0,1.08,0,2.25,0,3.48l6.2-1.54.16-.57.06-.22.07-.24.07-.25.19-.65.07-.25.07-.24.22-.77.35-1.22-1.48.48c-.55-1-1.08-1.94-1.59-3-5.25-10.71-6.2-18.94-2.54-22,3.18-2.67,9.39-1.13,16.59,4.13A78,78,0,0,1,60.41,35.26c-4.32,1.63-8.66,3.13-13.15,4.64l1,2.87.58,1.62q2.7-.72,5.41-1.49a5.35,5.35,0,0,1,.17-1.74c.62-2.27,2.88-4.4,7.39-4.13l.25,0h0l.25,0,.57.07.19,0h0l.25,0h0l1.36.24c1.47.26,1.47.26,2-.23l.41-.34a.47.47,0,0,1,.46-.11c.19.06.17.28.15.43s0,.36,0,1.24A92.08,92.08,0,0,0,87,28.76c-3.71,3.17-7,5.78-9.95,8l-.5.38-.5.38h-1.4l.06.12c.18.17.34.34.49.5l-.31.22-.31.22c-2.47,1.8-4.74,3.35-6.9,4.76q-.74-1.2-1.55-2.4l-.4-.22,0,0-.28-.13-.6-.26-.31-.11h0l-.3-.1q.73,1,1.43,2.06.59.88,1.14,1.77l-.58.37-.35.22-.36.23A15.27,15.27,0,0,0,62,43.26c-1.89-.58-2.47-1.36-2.63-1.9a1.35,1.35,0,0,1-.05-.25,1.6,1.6,0,0,1,1-1.53,5,5,0,0,1,3.22-.38l.27.05h0l.28.06.57.16.2.07h.07l.35.13a10.15,10.15,0,0,1,1.86,1c0-.82,0-1.47,0-2q0-.42,0-.72c-.65.51-.92.46-2.42.19l-.58-.1L63.8,38h0l-.2,0-.28,0-.27,0-.26,0h0l-.26,0c-4.51-.5-6.73,1.44-7.3,3.52A4.6,4.6,0,0,0,55,42.68,4.81,4.81,0,0,0,58.15,47l1.55.59.79.3-.41.25-.41.25-3.25,2-.35.22-.35.22-.5-.38v.68l-.38.24-.38.24L52.4,53l-.33.22-.33.22a3,3,0,0,1-.67-1c-.91-2.23-2-5.12-2.95-7.84-.57-1.6-1.12-3.14-1.6-4.45-.42-1.15-.78-2.12-1.06-2.79l-8.39,0,.06.13a4.15,4.15,0,0,1,1.34,1.84c-.19,1-.54,2.3-1,3.84L37,44.82h0l-.41,1.42-.07.24-.07.24-.19.66-.06.2v0l-.07.24c-.38,1.3-.76,2.61-1.11,3.85,0,0,.13.49-2.15,2.1,0,0,1.88,0,3.5,0,.81,0,1.56,0,2,0h0c-.19,0-1.55-1.15-.63-3.56l.08-.21v0h5.47c.76,2.28,1,2.28-.76,3.85,0,0,5,0,8.56,0l-.56.38-.19.13-.36.25c-1.38.93-2.94,2-4.63,3.08-.74-1-1.52-1.92-2.34-2.93l-.13-.16h-.25l-.27,0a.69.69,0,0,1-.53-.46.78.78,0,0,1,.09-.69c-.69-.86-1.39-1.74-2.09-2.67H38.34v0l-.07.24c2.05,2.95,4,5.38,5.74,7.49l0,.06A162.93,162.93,0,0,0,20.22,77.3l-.85-.82A43.42,43.42,0,0,1,7.78,56ZM77.78,42l2.42,6.18H75.86l1-3.09h0Zm-13.84,8a1.65,1.65,0,0,1-.07,1.33,3,3,0,0,1-2,1,7.29,7.29,0,0,1-4.28-.41l.4-.26.41-.26,3.37-2.15.38-.24.38-.24A2.67,2.67,0,0,1,63.95,49.94Zm-21.29-2H38.31l.28-.9.62-2,.86-2.76.17-.54.17.43,1.57,4ZM37,44.82h0Zm56.62,1A43.47,43.47,0,0,1,21,78.06c7-5.88,15.39-12.1,24-18,1.35,1.94,3.72,5,5.43,5.26a1.28,1.28,0,0,0,1.09-.31,1.17,1.17,0,0,0,.46-.93c0-.85-1.19-1.7-2.64-2.77a28.85,28.85,0,0,1-2.82-2.27Q48.8,57.59,51,56.13l3.48-2.24.38-.24.38-.24,0,1c.63-.5,1.39-1,1.44-1.06a.38.38,0,0,1,.21-.07.49.49,0,0,1,.2,0c1.1.43,5,1.68,8.45-.1C67.86,52.05,69,50.6,68.84,49A5,5,0,0,0,67,45.88l.34-.22.32-.21h0l0,.05c.19.18.36.35.53.54a5.39,5.39,0,0,1,1.32,2.46,3.92,3.92,0,0,1,.07.44s0,.08,0,.12c.57,1.16,1.09,2.32,1.56,3.47l.15-.13.13-.13a3.4,3.4,0,0,0,.31-.33l.07-.1,0-.09v0h0L72,51.4a63.48,63.48,0,0,0-3.39-6.55C70.74,43.42,72.9,42,75,40.52l.47-.32.46-.32c-.28,1.3-.79,3.13-1.38,5.16h0c-.64,2.21-1.36,4.66-2,6.89,0,0,0,.13-.23.46l-.14.16h0l-.14.15-.32.31-.14.12-.15.13c-.27.22-.61.48-1,.78l1.33,0h2.17c.81,0,1.55,0,2,0h0c-.2,0-1.65-1.22-.53-3.8h5.47c.76,2.28,1,2.28-.76,3.85,0,0,6.45,0,9.94,0a2.38,2.38,0,0,1-1.39-1.48C86.7,48,84.15,40.3,83,37.57l-3.77,0,.52-.38.52-.38c3.47-2.52,6.79-5.1,9.88-7.75A42.17,42.17,0,0,1,93.66,45.78Z"/><path class="cls-1" d="M60.66,40.24c-.19.1-.61.39-.57.79a.56.56,0,0,0,0,.1q1.73-.55,3.45-1.15A4.48,4.48,0,0,0,60.66,40.24Z"/><path class="cls-1" d="M38.74,53.8a.38.38,0,0,0-.29-.36l-.09-.07v.44l0,.38A.38.38,0,0,0,38.74,53.8Z"/><circle class="cls-1" cx="50.37" cy="5.19" r="0.36"/><circle class="cls-1" cx="52.81" cy="10.7" r="0.45"/><path class="cls-1" d="M59.35,19.26a.44.44,0,0,0-.43.45.45.45,0,0,0,.9,0h0A.46.46,0,0,0,59.35,19.26Z"/><circle class="cls-1" cx="48.92" cy="13.81" r="0.36"/><circle class="cls-1" cx="52.84" cy="15.88" r="0.36"/><circle class="cls-1" cx="47.66" cy="10.09" r="0.45"/><circle class="cls-1" cx="41.81" cy="13.7" r="0.36"/><circle class="cls-1" cx="42.87" cy="14.42" r="0.36"/><circle class="cls-1" cx="43.93" cy="15.15" r="0.36"/><circle class="cls-1" cx="42.31" cy="16.55" r="0.36"/><circle class="cls-1" cx="33.85" cy="22.48" r="0.36"/><circle class="cls-1" cx="35.42" cy="24.38" r="0.36"/><circle class="cls-1" cx="34.17" cy="55.09" r="0.36"/><circle class="cls-1" cx="34.31" cy="63.57" r="0.45"/><circle class="cls-1" cx="29.58" cy="67.91" r="0.36"/><circle class="cls-1" cx="23.73" cy="69.67" r="0.45"/><circle class="cls-1" cx="22.55" cy="65.75" r="0.45"/><circle class="cls-1" cx="21.97" cy="68.24" r="0.36"/><circle class="cls-1" cx="17.65" cy="66.17" r="0.36"/><path class="cls-1" d="M32.73,73.53a.35.35,0,0,0,.35-.36.36.36,0,0,0-.73,0A.38.38,0,0,0,32.73,73.53Z"/><path class="cls-1" d="M37.62,69.84a.45.45,0,0,0-.9,0,.46.46,0,0,0,.46.45A.44.44,0,0,0,37.62,69.84Z"/><path class="cls-1" d="M37.76,73.75a.36.36,0,1,0,0,.73.36.36,0,1,0,0-.73Z"/><circle class="cls-1" cx="56.42" cy="70.03" r="0.36"/><circle class="cls-1" cx="47.74" cy="73.11" r="0.36"/><circle class="cls-1" cx="71.09" cy="77.53" r="0.36"/><circle class="cls-1" cx="72.91" cy="60.32" r="0.45"/><circle class="cls-1" cx="69.41" cy="62.76" r="0.36"/><circle class="cls-1" cx="72.86" cy="63.46" r="0.45"/><circle class="cls-1" cx="69.41" cy="67.79" r="0.36"/><circle class="cls-1" cx="78.54" cy="57.89" r="0.36"/><path class="cls-1" d="M79.35,60.55a.44.44,0,0,0,.43-.45.45.45,0,0,0-.89,0A.46.46,0,0,0,79.35,60.55Z"/><circle class="cls-1" cx="85.63" cy="62.73" r="0.45"/><circle class="cls-1" cx="79.32" cy="67.4" r="0.36"/><circle class="cls-1" cx="83.36" cy="63.6" r="0.36"/><circle class="cls-1" cx="82.61" cy="69.47" r="0.36"/><path class="cls-1" d="M84.67,59.58a.56.56,0,0,0-.42-.41L84.13,58h0L84,59.17a.56.56,0,0,0-.42.42l-1.15.13,1.15.12a.56.56,0,0,0,.43.42l.13,1.22.13-1.22a.56.56,0,0,0,.4-.42l1.15-.15Z"/><path class="cls-1" d="M80.33,68.9l-.13-1.16-.13,1.16a.56.56,0,0,0-.42.42l-1.15.13,1.15.13a.56.56,0,0,0,.43.42l.13,1.22L80.35,70a.56.56,0,0,0,.4-.41l1.15-.15-1.15-.11A.56.56,0,0,0,80.33,68.9Z"/><path class="cls-1" d="M38.32,23.78,38.44,25l.13-1.22a.56.56,0,0,0,.4-.42l1.15-.15L39,23.1a.56.56,0,0,0-.42-.41l-.13-1.16-.13,1.16a.56.56,0,0,0-.42.42l-1.15.13,1.15.12A.56.56,0,0,0,38.32,23.78Z"/><path class="cls-1" d="M59.15,10.24l.13,1.21.13-1.22a.56.56,0,0,0,.4-.42L61,9.67,59.8,9.56a.56.56,0,0,0-.42-.41L59.26,8l-.13,1.16a.56.56,0,0,0-.42.42l-1.15.13,1.15.13A.56.56,0,0,0,59.15,10.24Z"/><path class="cls-1" d="M34.08,77.86l-.13-1.17-.13,1.16a.56.56,0,0,0-.43.42l-1.14.13,1.13.12a.56.56,0,0,0,.45.43L34,80.16l.13-1.23a.56.56,0,0,0,.39-.41l1.16-.15-1.17-.11A.56.56,0,0,0,34.08,77.86Z"/><path class="cls-1" d="M17.58,53.12c-.16-.17-.3-.32-.42-.47A2.42,2.42,0,0,1,16.53,51c0-.15,0-.31,0-.46-.11-3.46,0-7.49,0-7.59h0c0,.09,1.78,3,3.61,6.14l1.35,2.27,1.5,2.51h7c-.94-1.34-1.51-1.64-1.52-2.42s0-1.32,0-2c0-1.19,0-2.34,0-3.42,0-2.88,0-5.31,0-6.89,0-.77.22-.67,1.3-1.92,0,0-2.87,0-5.06,0,0,0,1.43,1.57,1.43,2.1,0,3.35,0,6.21,0,7.53,0,.49,0,.78,0,.79h0s-.14-.26-.37-.67c-1.3-2.3-5.66-9.76-5.77-9.76s.12,0-.62,0h-.69l-5.71,0-.1.07c1.39,1.7,1.42,1.66,1.42,2.1,0,2.73-.06,7,0,11.91a1.47,1.47,0,0,1,0,.27c0,.45-.26,1.4-1.76,2.2h1.33l3.43,0h.75l-.26-.27Z"/></svg>